<svg xmlns="http://www.w3.org/2000/svg" width="474" height="200" viewBox="0 0 474 200"><style>
  :root { --ink: #111111; }
  @media (prefers-color-scheme: dark) { :root { --ink: #ececec; } }
  text { font-family: -apple-system, Helvetica, Arial, sans-serif; fill: var(--ink); }
  line, polyline { stroke: var(--ink); fill: none; }
  .g { stroke-dasharray: 1 4; }
</style><text x="44" y="11" font-size="10">Lines of real code</text><line x1="44" y1="26" x2="464" y2="26" class="g"/><text x="40" y="29" font-size="9" text-anchor="end">2739</text><line x1="44" y1="97" x2="464" y2="97" class="g"/><text x="40" y="100" font-size="9" text-anchor="end">1369</text>
<line x1="44" y1="26" x2="44" y2="166"/><line x1="44" y1="166" x2="464" y2="166"/>
<polyline points="44,166 51,159 59,157 67,154 75,147 82,143 90,139 98,138 106,138 114,138 121,133 129,133 137,129 145,118 152,115 160,114 168,104 176,97 184,94 191,93 199,87 207,86 215,86 222,84 230,83 238,80 246,79 254,77 261,75 269,75 277,74 285,74 292,73 300,73 308,71 316,70 324,69 331,69 339,68 347,67 355,66 362,66 370,64 378,55 386,53 394,52 401,50 409,43 417,41 425,33 432,31 440,31 448,31 456,27 464,26" stroke-width="2.5" stroke-linejoin="round" stroke-linecap="round"/>
<text x="44" y="182" font-size="10">Aug 30</text><text x="464" y="182" font-size="10" text-anchor="end">Sep 11</text>
<text x="44" y="196" font-size="10" font-weight="600">2,739 lines &#183; 100% documented &#183; 50 commits since Aug 30 2026</text></svg>
